<?xml version="1.0" encoding="UTF-8" standalone="no"?>
<svg xmlns="http://www.w3.org/2000/svg" xmlns:xlink="http://www.w3.org/1999/xlink" version="1.1" id="Layer_1" x="0px" y="0px" viewBox="0 0 921 620" style="enable-background:new 0 0 921 620;" xml:space="preserve" width="921" height="620">
<style type="text/css">
	.st0{fill:#16222F;}
	.st1{fill:#3DAE2B;}
</style>
<path class="st0" d="M160.3,389c-0.5-0.7-0.9-1.4-2.1-1.4H157c-1.2,0-1.9,0.7-2.1,1.4l-38.7,84.2c-0.7,1.6,0.2,3.1,2.1,3.1h10.9  c2.1,0,3.1-1.2,3.6-2.6l6.2-13.5h37.4l6.2,13.5c0.9,1.9,1.9,2.6,3.6,2.6h10.9c1.9,0,2.9-1.6,2.1-3.1L160.3,389z M144.7,446.4  l12.3-27.3h0.5l12.6,27.3H144.7z"></path>
<path class="st0" d="M279.2,389h-11.4c-1.4,0-2.3,1.2-2.3,2.3v51.5h-0.2l-52-55.2h-3.1c-1.2,0-2.3,0.9-2.3,2.3v84  c0,1.2,1.2,2.3,2.3,2.3h11.4c1.4,0,2.3-1.2,2.3-2.3v-53.6h0.2l52.2,57.2h3c1.2,0,2.3-0.9,2.3-2.3v-84  C281.6,390.1,280.5,389,279.2,389z"></path>
<path class="st0" d="M335.2,389c-0.5-0.7-0.9-1.4-2.1-1.4H332c-1.2,0-1.9,0.7-2.1,1.4l-38.7,84.2c-0.7,1.6,0.2,3.1,2.1,3.1h10.9  c2.1,0,3.1-1.2,3.6-2.6l6.2-13.5h37.4l6.2,13.5c0.9,1.9,1.9,2.6,3.6,2.6h10.9c1.9,0,3-1.6,2.1-3.1L335.2,389z M319.7,446.4  l12.3-27.3h0.5l12.6,27.3H319.7z"></path>
<path class="st0" d="M442,454c-0.7-0.7-2.1-0.9-3.1,0c-5.2,4.3-11.6,7.1-19.2,7.1c-15.9,0-28-13.3-28-28.7  c0-15.7,11.9-29.2,27.8-29.2c7.1,0,14,2.8,19.2,7.3c0.9,0.9,2.3,0.9,3.1,0l7.6-7.8c0.9-0.9,0.9-2.6-0.2-3.4  c-8.5-7.6-17.6-11.6-30.1-11.6c-24.9,0-45.1,20.1-45.1,45.1c0,24.9,20.1,44.7,45.1,44.7c11.2,0,21.9-3.8,30.4-12.1  c0.9-0.9,1.2-2.6,0.2-3.4L442,454z"></path>
<path class="st0" d="M501.1,387.6c-24.9,0-44.7,20.1-44.7,45.1c0,24.9,19.9,44.7,44.7,44.7c24.9,0,44.9-19.9,44.9-44.7  C546.1,407.7,525.9,387.6,501.1,387.6z M501.1,461.3c-15.7,0-28.5-12.8-28.5-28.5c0-15.7,12.8-28.7,28.5-28.7  c15.7,0,28.7,13,28.7,28.7C529.6,448.5,516.8,461.3,501.1,461.3z"></path>
<path class="st0" d="M631.1,389h-11.4c-1.4,0-2.3,1.2-2.3,2.3v51.5h-0.2l-52-55.2h-3.1c-1.2,0-2.3,0.9-2.3,2.3v84  c0,1.2,1.2,2.3,2.3,2.3h11.4c1.4,0,2.3-1.2,2.3-2.3v-53.6h0.2l52.2,57.2h3c1.2,0,2.3-0.9,2.3-2.3v-84  C633.4,390.1,632.2,389,631.1,389z"></path>
<path class="st0" d="M681.1,389h-29.7c-1.2,0-2.3,1.2-2.3,2.3v82.6c0,1.2,0.9,2.3,2.3,2.3h29.7c24.2,0,43.8-19.6,43.8-43.8  C724.8,408.6,705.3,389,681.1,389z M679.7,461.1h-14.4v-57h14.2c16.2,0,28,12.3,28,28.5C707.7,448.7,695.9,461.1,679.7,461.1z"></path>
<path class="st0" d="M808.3,473.4l-38.5-84c-0.5-0.7-0.9-1.4-2.1-1.4h-1.2c-1.2,0-1.9,0.7-2.1,1.4l-38.7,84  c-0.7,1.6,0.2,3.1,2.1,3.1h10.9c2.1,0,3.1-1.2,3.6-2.6l6.2-13.5h37.4l6.2,13.5c0.9,1.9,1.9,2.6,3.6,2.6h10.9  C808.1,476.3,809,475,808.3,473.4z M754.5,446.4l12.3-27.3h0.5l12.5,27.3H754.5z"></path>
<path class="st0" d="M823.8,475h0.7c0.2,0,0.5-0.2,0.5-0.5v-2.3h1.4l0.9,2.6c0,0.2,0.2,0.2,0.5,0.2h0.9c0.2,0,0.5-0.2,0.5-0.5  c-0.5-0.7-0.7-1.6-1.2-2.3c0.7-0.2,1.6-0.9,1.6-2.3c0-1.6-1.2-2.6-2.6-2.6h-3c-0.2,0-0.5,0.2-0.5,0.5v6.6  C823.7,475,823.7,475,823.8,475z M825,468.9h1.9c0.7,0,0.9,0.5,0.9,0.9c0,0.5-0.5,0.9-0.9,0.9H825V468.9z"></path>
<path class="st0" d="M826.1,478.6c4.1,0,7.3-3.1,7.3-7.3s-3.4-7.3-7.3-7.3c-4.1,0-7.3,3.4-7.3,7.3  C818.8,475.2,822,478.6,826.1,478.6z M826.1,465.1c3.1,0,5.9,2.8,5.9,5.9s-2.8,5.9-5.9,5.9c-3.1,0-5.9-2.8-5.9-5.9  S823,465.1,826.1,465.1z"></path>
<path class="st1" d="M386.6,275.6v-0.7c0-7,0.7-13.6,1.8-20.2v-0.7l-0.7-0.4c-6.2-2.5-12.1-5.9-18-9l-0.7-0.4l-0.4,0.7  c-3.8,7.7-7,15.9-9.7,24.3l-0.4,0.7l0.7,0.4c8.7,2.5,17.3,4.1,26.4,4.8L386.6,275.6z"></path>
<path class="st1" d="M404.5,156.7C404.5,156.4,404.5,156.4,404.5,156.7c-5.2,0-10,0.4-15.2,0.7c0.7,5.2,1.4,10,2.8,15.2  C395.5,166.8,399.7,161.2,404.5,156.7z"></path>
<path class="st1" d="M386.6,281.8v-0.7h-0.7c-7.3-0.7-14.9-2.1-22.5-3.8l-2.1-0.4l1.1,1.8c6.6,10,14.9,19.1,24.6,27l1.4,1.4v-2.5  C387.2,296.8,386.6,288.8,386.6,281.8z"></path>
<path class="st1" d="M422.9,102.3c-9,3.1-17.7,7.3-25.7,12.5c5.9,1.1,11.8,2.5,17.7,4.1C417.4,113.4,419.8,107.8,422.9,102.3z"></path>
<path class="st1" d="M460.7,96.1c-4.5,0-9,0.4-13.2,0.7c6.2,4.1,12.1,9,17.7,14.3l4.5,4.1l-4.5,4.5c-3.8,3.4-7.7,7.7-11.1,11.8v0.4  c0,0-0.7,0.7-1.8,2.1c2.8-0.4,5.5-0.4,8.4-0.4c44.1,0,79.7,35.7,79.7,79.8S504.8,293,460.7,293c-15.2,0-29.5-4.1-41.6-11.8  c-5.9,0.7-12.1,1.1-18,1.1c-2.8,0-5.5,0-8.4-0.4c0.4,9,1.1,18.4,2.5,28.1c18.7,12.8,41.3,20.2,65.5,20.2  c64.8,0,117.2-52.3,117.2-117.2C577.9,148.4,525.6,96.1,460.7,96.1z"></path>
<path class="st1" d="M445.2,123.8c2.5-2.8,4.8-5.5,7.3-8c-5.5-4.5-11.4-9-17.3-12.8c-3.8,6.2-7,12.8-9.7,19.4  c5.2,2.1,10.4,4.1,15.6,6.6C443,126.2,444.8,124.1,445.2,123.8z"></path>
<path class="st1" d="M365.7,190.7l0.4,0.7l0.7-0.4c5.5-3.8,11.1-7.7,17-10.7l0.7-0.4v-0.7c-1.8-6.6-3.1-13.6-3.8-20.5V158H380  c-8.7,1.8-17.3,3.8-25.3,7l-0.7,0.4l0.4,0.7C356.8,174.3,360.9,182.7,365.7,190.7z"></path>
<path class="st1" d="M364.3,201.8l-0.7,0.7c-6.2,5.2-12.1,10.7-17.7,17l-0.7,0.7l0.7,0.7c6.2,5.2,12.5,10,19.4,14.6l0.7,0.4l0.4-0.7  c3.1-5.5,6.6-10.7,10.4-15.9l0.4-0.7l-0.4-0.4c-4.1-4.8-8.4-9.7-12.1-15.2L364.3,201.8z"></path>
<path class="st1" d="M410.4,276h2.1l-1.8-1.4c-6.2-5.2-11.8-11.1-15.9-18v-0.4l-1.4-0.7v1.1c-0.7,5.9-1.4,12.1-1.4,18.4v0.7h0.7  c2.8,0,5.5,0.4,8.4,0.4C404.3,276,407.3,276,410.4,276z"></path>
<path class="st1" d="M406.6,146.3c1.4-5.9,2.8-11.4,4.8-17c-7.3-2.1-14.9-3.8-22.5-4.8c-0.7,8-0.7,15.2-0.4,22.9  C394.5,146.6,400.4,146.3,406.6,146.3z"></path>
<path class="st1" d="M417.7,145.9c5.2-3.1,10.7-5.9,16.3-8c-4.1-2.1-8.4-3.8-12.5-5.2C420.2,137,418.8,141.4,417.7,145.9z"></path>
<path class="st1" d="M363.3,240.9h-0.7c-5.9-3.8-11.8-8-17.3-12.5l-1.8-1.4l0.4,2.1c1.4,11.1,4.5,22.2,9.3,32.5l0.7,1.8l0.7-1.8  c2.5-6.6,5.2-13.2,8.4-19.4L363.3,240.9z"></path>
<path class="st1" d="M378.2,130c-7,7-13.2,14.9-18,23.2c5.9-1.8,12.1-3.1,18.4-4.5C378.2,142.5,378.2,136.3,378.2,130z"></path>
<path class="st1" d="M381.6,212.2v-2.1c0.4-7.3,1.4-14.3,3.4-20.8l0.7-2.1l-1.8,1.1c-4.5,2.8-9,5.5-13.6,8.7l-0.7,0.4l1.1,0.7  c3.1,4.1,6.2,8.7,9.7,12.5L381.6,212.2z"></path>
<path class="st1" d="M382.7,224.3l-0.4-2.1l-1.1,1.8c-3.1,4.5-6.2,9.3-9,14.3l-0.4,0.7l0.7,0.4c4.8,2.8,10,5.2,15.2,7.7l1.8,0.7  l-0.7-1.8C385.9,239.2,383.8,231.6,382.7,224.3z"></path>
<path class="st1" d="M359.8,196.3l0.7-0.4l-0.4-0.7c-3.8-5.9-7-12.1-10-18.4l-0.7-1.8l-0.7,2.1c-3.4,10.7-5.2,21.5-5.5,32.9v2.1  l1.4-1.4C349.1,205.2,354.3,200.4,359.8,196.3z"></path>
</svg>
